HIERARCHY
ROOT Root
{
  OFFSET 0.0 0.0 0.0
  CHANNELS 6 Xposition Yposition Zposition Zrotation Yrotation Xrotation
  JOINT Hips
  {
    OFFSET 0.0 100.0 0.0
    CHANNELS 6 Xposition Yposition Zposition Zrotation Yrotation Xrotation
    JOINT Spine1
    {
      OFFSET 5.003913 -0.037094 -0.013727
      CHANNELS 3 Zrotation Yrotation Xrotation
      JOINT Spine2
      {
        OFFSET 7.125363 -1e-06 0.0
        CHANNELS 3 Zrotation Yrotation Xrotation
        JOINT Chest
        {
          OFFSET 7.594027 1e-06 0.0
          CHANNELS 3 Zrotation Yrotation Xrotation
          JOINT Neck1
          {
            OFFSET 26.313086 -0.460272 -0.181672
            CHANNELS 3 Zrotation Yrotation Xrotation
            JOINT Neck2
            {
              OFFSET 8.04591 0.0 0.0
              CHANNELS 3 Zrotation Yrotation Xrotation
              JOINT Head
              {
                OFFSET 6.432777 0.0 0.0
                CHANNELS 3 Zrotation Yrotation Xrotation
                JOINT HeadEnd
                {
                  OFFSET 16.169769 0.06451 0.00362
                  CHANNELS 3 Zrotation Yrotation Xrotation
                }
                JOINT Jaw
                {
                  OFFSET 0.108738 3.12938 0.002639
                  CHANNELS 3 Zrotation Yrotation Xrotation
                }
                JOINT LeftEye
                {
                  OFFSET 4.451729 8.166359 3.206392
                  CHANNELS 3 Zrotation Yrotation Xrotation
                }
                JOINT RightEye
                {
                  OFFSET 4.43689 8.135758 -3.222429
                  CHANNELS 3 Zrotation Yrotation Xrotation
                }
              }
            }
          }
          JOINT LeftShoulder
          {
            OFFSET 23.218927 5.195579 1.621656
            CHANNELS 3 Zrotation Yrotation Xrotation
            JOINT LeftArm
            {
              OFFSET 15.902122 2e-06 -2e-06
              CHANNELS 3 Zrotation Yrotation Xrotation
              JOINT LeftForeArm
              {
                OFFSET 28.739304 0.0 -1e-06
                CHANNELS 3 Zrotation Yrotation Xrotation
                JOINT LeftHand
                {
                  OFFSET 27.093979 -4e-06 0.0
                  CHANNELS 3 Zrotation Yrotation Xrotation
                  JOINT LeftHandThumb1
                  {
                    OFFSET 2.276787 3.380274 0.83384
                    CHANNELS 3 Zrotation Yrotation Xrotation
                    JOINT LeftHandThumb2
                    {
                      OFFSET 4.705307 -2e-06 -1e-06
                      CHANNELS 3 Zrotation Yrotation Xrotation
                      JOINT LeftHandThumb3
                      {
                        OFFSET 2.798515 0.0 3e-06
                        CHANNELS 3 Zrotation Yrotation Xrotation
                        JOINT LeftHandThumbEnd
                        {
                          OFFSET 3.180786 5e-06 -4e-06
                          CHANNELS 3 Zrotation Yrotation Xrotation
                        }
                      }
                    }
                  }
                  JOINT LeftHandIndex1
                  {
                    OFFSET 3.24778 2.352677 0.137192
                    CHANNELS 3 Zrotation Yrotation Xrotation
                    JOINT LeftHandIndex2
                    {
                      OFFSET 6.367104 1e-06 0.0
                      CHANNELS 3 Zrotation Yrotation Xrotation
                      JOINT LeftHandIndex3
                      {
                        OFFSET 3.662361 0.0 0.0
                        CHANNELS 3 Zrotation Yrotation Xrotation
                        JOINT LeftHandIndex4
                        {
                          OFFSET 2.329239 4e-06 -4e-06
                          CHANNELS 3 Zrotation Yrotation Xrotation
                          JOINT LeftHandIndexEnd
                          {
                            OFFSET 2.767822 0.0 0.0
                            CHANNELS 3 Zrotation Yrotation Xrotation
                          }
                        }
                      }
                    }
                  }
                  JOINT LeftHandMiddle1
                  {
                    OFFSET 3.163612 0.945023 -0.406112
                    CHANNELS 3 Zrotation Yrotation Xrotation
                    JOINT LeftHandMiddle2
                    {
                      OFFSET 6.276794 3e-06 0.0
                      CHANNELS 3 Zrotation Yrotation Xrotation
                      JOINT LeftHandMiddle3
                      {
                        OFFSET 4.356522 -1e-06 4e-06
                        CHANNELS 3 Zrotation Yrotation Xrotation
                        JOINT LeftHandMiddle4
                        {
                          OFFSET 2.996872 0.0 8e-06
                          CHANNELS 3 Zrotation Yrotation Xrotation
                          JOINT LeftHandMiddleEnd
                          {
                            OFFSET 2.323257 3e-06 -4e-06
                            CHANNELS 3 Zrotation Yrotation Xrotation
                          }
                        }
                      }
                    }
                  }
                  JOINT LeftHandRing1
                  {
                    OFFSET 2.882607 -0.309162 0.107445
                    CHANNELS 3 Zrotation Yrotation Xrotation
                    JOINT LeftHandRing2
                    {
                      OFFSET 6.033195 0.0 4e-06
                      CHANNELS 3 Zrotation Yrotation Xrotation
                      JOINT LeftHandRing3
                      {
                        OFFSET 4.350578 3e-06 0.0
                        CHANNELS 3 Zrotation Yrotation Xrotation
                        JOINT LeftHandRing4
                        {
                          OFFSET 2.651321 1e-06 -7e-06
                          CHANNELS 3 Zrotation Yrotation Xrotation
                          JOINT LeftHandRingEnd
                          {
                            OFFSET 1.937668 1e-06 -4e-06
                            CHANNELS 3 Zrotation Yrotation Xrotation
                          }
                        }
                      }
                    }
                  }
                  JOINT LeftHandPinky1
                  {
                    OFFSET 2.865311 -1.525436 0.575687
                    CHANNELS 3 Zrotation Yrotation Xrotation
                    JOINT LeftHandPinky2
                    {
                      OFFSET 5.549362 1e-06 -8e-06
                      CHANNELS 3 Zrotation Yrotation Xrotation
                      JOINT LeftHandPinky3
                      {
                        OFFSET 3.070969 0.0 -4e-06
                        CHANNELS 3 Zrotation Yrotation Xrotation
                        JOINT LeftHandPinky4
                        {
                          OFFSET 1.549675 1e-06 0.0
                          CHANNELS 3 Zrotation Yrotation Xrotation
                          JOINT LeftHandPinkyEnd
                          {
                            OFFSET 1.952118 0.0 0.0
                            CHANNELS 3 Zrotation Yrotation Xrotation
                          }
                        }
                      }
                    }
                  }
                }
              }
            }
          }
          JOINT RightShoulder
          {
            OFFSET 23.161718 5.296122 -1.380114
            CHANNELS 3 Zrotation Yrotation Xrotation
            JOINT RightArm
            {
              OFFSET -16.027195 -2e-06 1.1e-05
              CHANNELS 3 Zrotation Yrotation Xrotation
              JOINT RightForeArm
              {
                OFFSET -28.736641 4e-06 2e-06
                CHANNELS 3 Zrotation Yrotation Xrotation
                JOINT RightHand
                {
                  OFFSET -27.133617 6e-06 0.0
                  CHANNELS 3 Zrotation Yrotation Xrotation
                  JOINT RightHandThumb1
                  {
                    OFFSET -2.274328 -3.351035 -0.83067
                    CHANNELS 3 Zrotation Yrotation Xrotation
                    JOINT RightHandThumb2
                    {
                      OFFSET -4.703592 -3e-06 2e-06
                      CHANNELS 3 Zrotation Yrotation Xrotation
                      JOINT RightHandThumb3
                      {
                        OFFSET -2.794937 -4e-06 -3e-06
                        CHANNELS 3 Zrotation Yrotation Xrotation
                        JOINT RightHandThumbEnd
                        {
                          OFFSET -3.183853 4e-06 1e-06
                          CHANNELS 3 Zrotation Yrotation Xrotation
                        }
                      }
                    }
                  }
                  JOINT RightHandIndex1
                  {
                    OFFSET -3.253498 -2.33755 -0.127667
                    CHANNELS 3 Zrotation Yrotation Xrotation
                    JOINT RightHandIndex2
                    {
                      OFFSET -6.344433 0.0 0.0
                      CHANNELS 3 Zrotation Yrotation Xrotation
                      JOINT RightHandIndex3
                      {
                        OFFSET -3.654869 0.0 -8e-06
                        CHANNELS 3 Zrotation Yrotation Xrotation
                        JOINT RightHandIndex4
                        {
                          OFFSET -2.327587 -1e-06 0.0
                          CHANNELS 3 Zrotation Yrotation Xrotation
                          JOINT RightHandIndexEnd
                          {
                            OFFSET -2.770004 3e-06 8e-06
                            CHANNELS 3 Zrotation Yrotation Xrotation
                          }
                        }
                      }
                    }
                  }
                  JOINT RightHandMiddle1
                  {
                    OFFSET -3.168224 -0.944764 0.411762
                    CHANNELS 3 Zrotation Yrotation Xrotation
                    JOINT RightHandMiddle2
                    {
                      OFFSET -6.266689 -1e-06 -4e-06
                      CHANNELS 3 Zrotation Yrotation Xrotation
                      JOINT RightHandMiddle3
                      {
                        OFFSET -4.348904 0.0 0.0
                        CHANNELS 3 Zrotation Yrotation Xrotation
                        JOINT RightHandMiddle4
                        {
                          OFFSET -3.000237 2e-06 -4e-06
                          CHANNELS 3 Zrotation Yrotation Xrotation
                          JOINT RightHandMiddleEnd
                          {
                            OFFSET -2.32148 -4e-06 -4e-06
                            CHANNELS 3 Zrotation Yrotation Xrotation
                          }
                        }
                      }
                    }
                  }
                  JOINT RightHandRing1
                  {
                    OFFSET -2.885654 0.293261 -0.119232
                    CHANNELS 3 Zrotation Yrotation Xrotation
                    JOINT RightHandRing2
                    {
                      OFFSET -6.032833 -1e-06 -4e-06
                      CHANNELS 3 Zrotation Yrotation Xrotation
                      JOINT RightHandRing3
                      {
                        OFFSET -4.33881 0.0 -4e-06
                        CHANNELS 3 Zrotation Yrotation Xrotation
                        JOINT RightHandRing4
                        {
                          OFFSET -2.654903 -4e-06 -4e-06
                          CHANNELS 3 Zrotation Yrotation Xrotation
                          JOINT RightHandRingEnd
                          {
                            OFFSET -1.935123 0.0 4e-06
                            CHANNELS 3 Zrotation Yrotation Xrotation
                          }
                        }
                      }
                    }
                  }
                  JOINT RightHandPinky1
                  {
                    OFFSET -2.866241 1.503903 -0.60527
                    CHANNELS 3 Zrotation Yrotation Xrotation
                    JOINT RightHandPinky2
                    {
                      OFFSET -5.553177 -1e-06 0.0
                      CHANNELS 3 Zrotation Yrotation Xrotation
                      JOINT RightHandPinky3
                      {
                        OFFSET -3.062664 -1e-06 -4e-06
                        CHANNELS 3 Zrotation Yrotation Xrotation
                        JOINT RightHandPinky4
                        {
                          OFFSET -1.546532 2e-06 4e-06
                          CHANNELS 3 Zrotation Yrotation Xrotation
                          JOINT RightHandPinkyEnd
                          {
                            OFFSET -1.952339 0.0 -4e-06
                            CHANNELS 3 Zrotation Yrotation Xrotation
                          }
                        }
                      }
                    }
                  }
                }
              }
            }
          }
        }
      }
    }
    JOINT LeftLeg
    {
      OFFSET -8.443107 2.567604 10.043214
      CHANNELS 3 Zrotation Yrotation Xrotation
      JOINT LeftShin
      {
        OFFSET 43.229202 1e-06 -1e-06
        CHANNELS 3 Zrotation Yrotation Xrotation
        JOINT LeftFoot
        {
          OFFSET 42.298607 1e-06 1e-06
          CHANNELS 3 Zrotation Yrotation Xrotation
          JOINT LeftToeBase
          {
            OFFSET 14.165863 1e-06 0.0
            CHANNELS 3 Zrotation Yrotation Xrotation
            JOINT LeftToeEnd
            {
              OFFSET 6.714096 -0.234461 0.0
              CHANNELS 3 Zrotation Yrotation Xrotation
            }
          }
        }
      }
    }
    JOINT RightLeg
    {
      OFFSET -8.303924 2.592729 -10.047277
      CHANNELS 3 Zrotation Yrotation Xrotation
      JOINT RightShin
      {
        OFFSET -43.369686 0.0 0.0
        CHANNELS 3 Zrotation Yrotation Xrotation
        JOINT RightFoot
        {
          OFFSET -42.260784 4e-06 3e-06
          CHANNELS 3 Zrotation Yrotation Xrotation
          JOINT RightToeBase
          {
            OFFSET -14.222237 -2e-06 -2e-06
            CHANNELS 3 Zrotation Yrotation Xrotation
            JOINT RightToeEnd
            {
              OFFSET -6.660072 0.232574 -1e-06
              CHANNELS 3 Zrotation Yrotation Xrotation
            }
          }
        }
      }
    }
  }
}
MOTION
Frames: 4
Frame Time: 0.03333333333333333
0.0 0.0 0.0 0.0 -0.0 0.0 0.899917 96.98201 -5.748919 100.86248 -0.64525 90.547714 -3.865915 -7.045549 -0.18307 -12.020625 -2.210912 -0.441503 18.6292 -2.841273 -2.941274 29.427607 2.578571 2.977811 -2.400855 -1.202893 -6.351474 -28.810022 -2.0123 -5.856321 6e-06 0.0 -0.0 -0.011997 0.028731 -0.021913 -0.010977 0.075735 -0.015816 -0.035116 -0.022716 -0.031869 -133.869263 -70.826157 149.308716 40.421558 -51.733124 5.606478 23.079773 0.239747 -0.036001 0.187774 -0.623532 8.265325 17.636543 -26.32268 52.411087 -19.466566 -14.395527 29.410307 -2.2e-05 -8.774764 -1e-06 16.467352 -18.872652 6.182518 -0.609772 -1.795642 -3.889312 -4.807035 -11.046736 -2.937846 5.1e-05 -20.975904 8e-06 -5.019869 -25.033421 -4.031834 5e-06 0.0 -1e-06 -10.634465 -5.686922 -3.565587 10.573234 -17.922861 -3.11388 2.8e-05 -13.821134 1.8e-05 -0.50172 -31.181358 -4.026927 -11.825486 -60.122543 7.978194 -13.982623 -7.150137 -2.875048 13.772651 -8.401467 -3.218226 0.347785 -34.211357 0.771695 -0.96302 -17.733313 2.621067 -2e-06 3e-06 0.0 -17.346277 -20.09507 -4.201803 21.757408 -1.638404 3.866406 1.4e-05 -6.33879 9e-06 -1.697513 -22.591627 -6.193955 -2e-06 -3e-06 1e-06 39.445427 -70.677086 155.595291 36.279804 -60.863018 -9.512079 24.356014 0.26866 -0.001975 6.120095 -2.903001 0.552625 22.181973 -20.37586 49.933228 -16.701742 -16.743477 28.476484 -1.3e-05 -12.690536 1.7e-05 16.833965 -17.933918 2.341817 -0.105917 -1.513848 -4.275872 -5.039012 -5.612847 -2.953551 1e-05 -11.020491 -5e-06 -6.111247 -15.8953 -3.840474 0.0 -2e-06 -1e-06 -10.283315 -5.680261 -4.341828 11.02824 -11.302356 -2.372632 -1.384245 -14.238521 -6.320111 -0.625396 -26.92412 -3.827605 -4.226027 -49.705971 -3.48275 -13.708453 -7.363442 -3.720932 18.141058 -14.052679 -3.242675 1e-05 -18.78721 -2e-06 -0.429713 -8.456036 2.555507 -1e-06 -0.0 -3e-06 -15.923439 -20.094389 -5.473577 30.419058 -7.190788 1.735891 1e-06 -8.1629 4e-06 -1.86188 -22.86141 -6.167913 -3e-06 -3e-06 -3e-06 176.797516 16.363621 -9.485477 6.375563 -0.051944 -0.375839 -76.576561 1.278365 2.908151 -6.599108 1.522601 2.020763 -1.000001 0.0 -0.0 -25.179995 -15.722131 12.797615 77.761642 -0.254115 0.164758 -70.216904 2.42197 -4.42554 -8.7639 0.69829 1.659809 -1.000001 0.0 0.0 
0.0 0.0 0.0 0.0 -0.0 0.0 2.056035 97.088051 -3.592704 100.051178 -0.520415 92.489105 -3.532429 -6.665222 -0.35514 -11.809824 -2.099013 -0.770483 18.594294 -2.363907 -3.507366 29.23278 3.079301 2.919647 -2.326091 -1.233348 -7.077088 -28.737898 -2.27896 -6.505303 6e-06 -0.0 0.0 -0.042386 0.026115 -0.027151 -0.04911 0.087599 -0.022886 -0.07602 -0.038625 -0.037907 -133.452469 -71.257271 148.823608 42.021523 -51.371895 3.760572 24.250942 0.234402 -0.069779 -0.244736 -0.573246 7.920848 17.636576 -26.322739 52.411247 -19.466675 -14.395635 29.410437 -1e-06 -8.774832 7e-06 16.211761 -18.777273 6.251733 -0.609773 -1.795652 -3.889332 -4.80709 -11.046804 -2.937849 5e-06 -20.976006 -6e-06 -5.019965 -25.033566 -4.031898 4e-06 -2e-06 -0.0 -10.634535 -5.686972 -3.565584 10.573279 -17.922934 -3.113915 3e-06 -13.821203 -1e-06 -0.50176 -31.181528 -4.027034 -11.735978 -60.069424 7.849273 -13.982718 -7.150199 -2.875037 13.772735 -8.401484 -3.218259 0.347727 -34.211555 0.771654 -0.963037 -17.733406 2.621022 -3e-06 4e-06 2e-06 -17.346428 -20.095217 -4.201777 21.757572 -1.638367 3.866412 0.0 -6.33882 -1e-06 -1.697585 -22.591757 -6.194026 3e-06 -5e-06 -1e-06 40.354034 -70.533119 154.771713 35.44836 -60.299191 -9.825421 26.575962 -0.233007 -0.058182 8.152358 -2.638251 -0.457094 22.182133 -20.376032 49.933548 -16.701836 -16.743595 28.476673 -1e-05 -12.69064 1.2e-05 16.906324 -17.781361 2.274524 -0.105919 -1.513855 -4.275895 -5.039048 -5.612876 -2.953568 9e-06 -11.020553 4e-06 -6.111303 -15.895391 -3.840495 1e-06 1e-06 0.0 -10.283382 -5.680292 -4.341855 11.028317 -11.302424 -2.372638 -1.384258 -14.238616 -6.320151 -0.625423 -26.92432 -3.827607 -4.161813 -49.766949 -3.495621 -13.708543 -7.363482 -3.720954 18.141193 -14.052762 -3.242685 -1e-06 -18.787334 2.6e-05 -0.429725 -8.456091 2.555539 0.0 -1e-06 0.0 -15.923553 -20.094507 -5.473606 30.419271 -7.190835 1.735915 -4e-06 -8.162953 1.4e-05 -1.861922 -22.861588 -6.167937 1e-06 -3e-06 -4e-06 179.013092 16.321295 -8.495526 6.318859 0.015602 -0.271712 -77.532082 2.633205 3.76397 -6.237964 1.511046 2.035974 -0.999998 -0.0 0.0 -28.094397 -13.110349 11.885235 76.304985 -0.135622 0.078229 -72.632324 3.082697 -4.9022 -8.366784 0.711441 1.705485 -1.000002 -0.0 -0.0 
0.0 0.0 0.0 0.0 -0.0 0.0 3.375439 97.093163 -1.054051 99.14505 -0.626436 94.609169 -3.363438 -6.343956 -0.488549 -11.690353 -2.081021 -1.233865 18.587141 -1.718425 -4.024785 28.993935 3.869456 2.859619 -2.334145 -1.201464 -7.658011 -28.49861 -2.730956 -7.21071 6e-06 -0.0 -1e-06 -0.05899 0.031234 -0.049656 -0.07775 0.089253 -0.04056 -0.091626 -0.030014 -0.066257 -133.388657 -71.977417 148.637756 43.437103 -51.192055 2.725843 25.36891 0.283809 -0.092491 -0.721287 -0.881508 7.46817 17.636635 -26.32268 52.411087 -19.466646 -14.395596 29.410347 1.2e-05 -8.774842 -2e-06 16.135414 -18.769934 6.274455 -0.609779 -1.795654 -3.889325 -4.807107 -11.046829 -2.937842 -2.4e-05 -20.976072 5e-06 -5.020025 -25.033691 -4.031898 7e-06 3e-06 -4e-06 -10.634542 -5.686983 -3.565575 10.573263 -17.922962 -3.113891 -1.3e-05 -13.821251 -1e-06 -0.50181 -31.181696 -4.027044 -11.696823 -60.110111 7.788702 -13.982725 -7.150213 -2.875028 13.772733 -8.401487 -3.218233 0.347686 -34.211662 0.771661 -0.96305 -17.733473 2.62102 -2e-06 -1e-06 0.0 -17.346453 -20.09524 -4.201755 21.757587 -1.638348 3.866432 -6e-06 -6.33884 0.0 -1.697625 -22.591871 -6.194032 0.0 -3e-06 -3e-06 40.641766 -70.060158 154.531891 34.35096 -59.683102 -10.160642 28.024286 -0.430253 -0.05911 9.267838 -2.561696 -1.037123 22.182142 -20.375824 49.93335 -16.701881 -16.743546 28.476583 -1.1e-05 -12.690636 -4e-06 16.831573 -17.681377 2.308839 -0.10592 -1.513861 -4.275885 -5.03905 -5.612881 -2.953568 1.4e-05 -11.020554 -2.3e-05 -6.111297 -15.895411 -3.840525 -0.0 -2e-06 -1e-06 -10.283386 -5.680298 -4.341843 11.02832 -11.302423 -2.372653 -1.384256 -14.238619 -6.320161 -0.625367 -26.924318 -3.827671 -4.139112 -49.764687 -3.533309 -13.708549 -7.363488 -3.720944 18.141195 -14.052762 -3.2427 3.8e-05 -18.787317 -3.6e-05 -0.429696 -8.456073 2.555506 -1e-06 0.0 0.0 -15.92356 -20.094509 -5.473604 30.419279 -7.19085 1.735925 1.1e-05 -8.162935 -1.3e-05 -1.861849 -22.861557 -6.168015 -2e-06 -3e-06 -2e-06 -179.241272 15.983136 -7.23268 6.60923 0.085433 -0.22322 -78.576103 4.055914 4.745509 -5.835711 1.446399 2.051065 -0.999998 0.0 -0.0 -30.801783 -10.445732 10.678858 72.469215 -0.070354 0.000221 -74.36026 4.124917 -6.039992 -8.267841 0.744473 1.704891 -1.000009 -0.0 0.0 
0.0 0.0 0.0 0.0 -0.0 0.0 4.601019 96.99308 1.497493 98.414703 -0.910228 96.714478 -3.328416 -6.199386 -0.578685 -11.644581 -2.154548 -1.703776 18.597511 -1.132399 -4.475211 28.715151 4.948146 2.833165 -2.349173 -1.234632 -8.214643 -28.303755 -3.200428 -8.002565 6e-06 0.0 -1e-06 -0.060774 0.036021 -0.081399 -0.085935 0.093517 -0.064994 -0.081779 -0.02526 -0.104518 -133.406845 -72.764168 148.569626 44.976856 -50.975811 2.239492 26.109545 0.360329 -0.10024 -1.106394 -1.3821 7.331291 17.636681 -26.322819 52.411354 -19.466778 -14.395656 29.410536 1.1e-05 -8.774887 -1e-06 16.10392 -18.753723 6.289469 -0.609779 -1.795664 -3.88934 -4.807127 -11.046895 -2.937861 -2.3e-05 -20.976221 -1e-05 -5.020038 -25.033909 -4.031954 4e-06 2e-06 2e-06 -10.634582 -5.68701 -3.565595 10.573318 -17.923069 -3.113925 -1.3e-05 -13.821339 -7e-06 -0.50179 -31.181948 -4.027101 -11.716117 -60.152828 7.827155 -13.982778 -7.150249 -2.875042 13.772795 -8.401534 -3.218263 0.347705 -34.211933 0.771638 -0.963044 -17.73362 2.621021 -3e-06 3e-06 1e-06 -17.346518 -20.095341 -4.201782 21.757683 -1.638357 3.86645 -5e-06 -6.338881 -4e-06 -1.697614 -22.592054 -6.194106 -2e-06 -4e-06 1e-06 40.62394 -69.346626 154.589096 33.30909 -59.214912 -10.72522 28.72015 -0.40473 -0.027707 9.732119 -2.588732 -1.2899 22.182186 -20.375919 49.933453 -16.701893 -16.743586 28.476635 -4e-06 -12.690667 -3e-06 16.701672 -17.633186 2.353228 -0.105919 -1.513861 -4.275894 -5.039064 -5.612896 -2.953569 6e-06 -11.020585 -9e-06 -6.111325 -15.895453 -3.840516 2e-06 -2e-06 -0.0 -10.283407 -5.68031 -4.341849 11.028337 -11.302442 -2.372648 -1.384271 -14.238649 -6.320163 -0.625409 -26.924374 -3.827655 -4.139514 -49.756149 -3.563827 -13.708571 -7.363503 -3.720949 18.141226 -14.052791 -3.242695 1.5e-05 -18.787369 -1.6e-05 -0.42971 -8.456104 2.555523 -1e-06 -3e-06 -3e-06 -15.923597 -20.094555 -5.473602 30.419336 -7.190852 1.735936 6e-06 -8.162964 -6e-06 -1.86188 -22.861639 -6.168022 -2e-06 -3e-06 -3e-06 -177.924072 15.695944 -5.908666 7.258674 0.118697 -0.210205 -79.719643 5.38197 5.772916 -5.494126 1.365925 2.061547 -0.999998 -0.0 -0.0 -33.006809 -8.152496 9.673028 66.387764 -0.070549 -0.058376 -75.369171 4.577661 -7.381509 -8.125071 0.812407 1.716005 -1.000006 -1e-06 -0.0 
